PathFileType	4	(X/Y/Z)	C:\Users\willi\Desktop\Data_PaperCallum_v2\17_Akif\Gait04\marker_experimental_temp.trc
DataRate	CameraRate	NumFrames	NumMarkers	Units	OrigDataRate	OrigDataStartFrame	OrigNumFrames
100.000000	100.000000	8	27	mm	100.000000	135	181
Frame#	Time	C7			T10			Clav			Sternum			Right_Back			PCL_CRAN			PCL_RECHTS			PCL_LINKS			RCL_UL_CRAN			RCL_UL_POST			RCL_UL_ANT			RCL_LL_CRAN			RCL_LL_POST			RCL_LL_ANT			Right_Heel			Right_Toe			Right_M5			LCL_UL_CRAN			LCL_UL_POST			LCL_UL_ANT			LCL_LL_CRAN			LCL_LL_POST			LCL_LL_ANT			Left_Heel			Left_Toe			Left_M5			*26			
		X1	Y1	Z1	X2	Y2	Z2	X3	Y3	Z3	X4	Y4	Z4	X5	Y5	Z5	X6	Y6	Z6	X7	Y7	Z7	X8	Y8	Z8	X9	Y9	Z9	X10	Y10	Z10	X11	Y11	Z11	X12	Y12	Z12	X13	Y13	Z13	X14	Y14	Z14	X15	Y15	Z15	X16	Y16	Z16	X17	Y17	Z17	X18	Y18	Z18	X19	Y19	Z19	X20	Y20	Z20	X21	Y21	Z21	X22	Y22	Z22	X23	Y23	Z23	X24	Y24	Z24	X25	Y25	Z25	X26	Y26	Z26	X27	Y27	Z27	

136	1.35	-347.8512573242189	1402.759033203125	167.2984161376953	-328.3585510253907	1185.972900390625	167.456283569336	-496.1419067382813	1341.380981445313	175.3752593994141	-567.2623901367189	1181.502685546875	183.5409698486328	-323.0398559570313	1341.933837890625	51.56048583984377	-343.1288452148438	1022.403076171875	167.6122283935547	-333.6685485839844	962.3849487304688	145.404052734375	-334.5400085449219	963.052978515625	196.0473327636719	-484.3064270019532	726.173095703125	-14.72759056091306	-477.9701538085938	661.58154296875	-11.41721248626706	-524.7088623046875	676.480712890625	-22.08721733093259	-455.5854187011719	410.2357177734375	-10.27855110168454	-395.5715026855469	382.8784790039063	-7.05704021453855	-434.5484313964844	348.4103698730469	-5.901221752166721	-171.5111236572266	208.2396697998047	95.31916809082033	-307.032470703125	74.90412139892577	63.19480895996096	-261.3333435058594	96.43486022949217	15.84175491333009	-470.7322998046876	752.6915283203125	338.3023986816407	-461.8277587890626	688.4358520507813	330.4139099121094	-509.6643981933594	700.1116943359375	335.2853393554688	-449.3731079101563	371.2826232910156	299.2037963867188	-422.1732788085938	311.7928771972656	300.2329711914063	-472.2203979492188	309.9715881347656	291.7376098632813	-354.4000854492188	33.61088943481443	212.6092376708985	-561.3678588867188	27.01580810546871	210.4998168945313	-515.7211303710938	6.384501934051482	274.7715148925782	nan	nan	nan	
137	1.36	-361.4097290039064	1404.37109375	167.5315856933594	-341.4771423339844	1187.613037109375	167.6188354492188	-509.4801330566407	1342.68212890625	175.0198211669922	-580.1047973632814	1182.611938476563	183.6516876220703	-335.9854431152344	1343.408447265625	52.20170211791994	-355.9250488281251	1023.964538574219	167.1794128417969	-346.5017089843751	964.0645751953125	144.6013641357422	-347.0903625488282	964.4691772460938	195.2415008544922	-502.3710021972657	729.6319580078125	-15.48661899566647	-497.5185852050782	664.8912963867188	-12.23918247222897	-543.9404296875	680.9014282226563	-22.56674766540524	-480.9755859375	411.7720642089843	-9.954422950744599	-422.1983032226563	381.8621826171875	-6.257147312164281	-462.5219116210938	349.0906982421875	-5.781481742858858	-205.616943359375	195.8687896728516	96.30894470214845	-349.5797424316406	72.1555252075195	61.30044174194338	-302.3763427734375	91.24546051025389	14.67558670043947	-479.5822753906251	753.4381713867188	337.5598449707032	-469.7419128417969	689.392333984375	329.2605895996094	-517.7194213867188	700.3126831054688	334.7778930664063	-451.311767578125	372.3036804199219	298.4205017089844	-423.5309753417969	313.2710876464844	299.8351135253906	-473.5272216796875	310.8465881347656	291.1270141601563	-354.8593139648438	35.04060745239256	211.8872222900391	-561.6292114257813	26.83761405944821	210.6862487792969	-515.71044921875	6.375401496887175	274.7617492675782	nan	nan	nan	
138	1.37	-374.9320373535157	1405.766967773438	167.657470703125	-354.5343627929688	1189.035888671875	167.6683044433594	-522.7734375000001	1343.742431640625	174.6452941894532	-592.8776855468751	1183.470458984375	183.8272247314453	-348.9416503906251	1344.644897460938	52.75778579711916	-368.6775512695313	1025.289306640625	166.5719451904297	-359.3004455566407	965.50244140625	143.6448974609375	-359.5756225585938	965.6603393554688	194.2794189453125	-520.1907958984375	732.8660278320313	-16.21599769592282	-516.8240356445313	668.00830078125	-13.09839725494382	-562.955810546875	685.0971069335938	-22.92745018005368	-505.7878112792969	412.7810974121093	-9.578071594238251	-448.6275634765625	380.071044921875	-5.695150852203342	-490.287109375	349.2473754882812	-5.595060348510712	-240.9136810302734	182.3656158447265	97.27693939208986	-392.6327514648438	68.96018981933591	59.58102798461916	-344.0442504882813	85.39208221435545	13.61614608764651	-488.3136596679688	754.090087890625	336.8313598632813	-477.5537109375001	690.2713623046875	328.0607299804688	-525.644287109375	700.4451904296875	334.2506103515626	-453.3311462402344	373.3902587890625	297.5841674804688	-424.958740234375	314.8099060058594	299.3789672851563	-474.8943786621094	311.8095703124999	290.6084594726563	-355.3182067871094	36.54357528686521	211.0761413574219	-561.861328125	26.69721603393551	210.875228881836	-515.6720581054688	6.422467708587615	274.7325744628907	nan	nan	nan	
139	1.38	-388.4290466308595	1406.925903320313	167.6778564453125	-367.5462646484376	1190.220581054688	167.5984191894532	-536.0372314453126	1344.543334960938	174.2509460449219	-605.6007690429689	1184.061401367188	184.0570526123047	-361.9189147949219	1345.626098632813	53.22805023193362	-381.4053955078126	1026.35595703125	165.7847747802735	-372.0846862792969	966.6735229492188	142.5394287109375	-372.0172119140626	966.6097412109375	193.1656036376953	-537.7294311523438	735.7923583984375	-16.88529014587399	-535.8348999023438	670.8600463867188	-13.95509338378903	-581.70751953125	688.9869995117188	-23.14364242553707	-530.0120849609375	413.2160034179687	-9.147204399108855	-474.8383178710938	377.5483093261718	-5.356419563293428	-517.7957763671875	348.8910217285156	-5.342200279235808	-277.4716796875	167.9557800292968	98.20006561279298	-436.1834106445313	65.46804046630857	57.9602966308594	-386.3406982421875	79.04067230224607	12.60283088684084	-496.9567565917969	754.6408081054688	336.1257324218751	-485.2923278808594	691.060791015625	326.8528747558594	-533.4728393554688	700.4944458007813	333.6999206542969	-455.4750061035156	374.5170593261719	296.7115783691406	-426.4933166503906	316.3738708496094	298.8533935546875	-476.3674621582031	312.8247985839843	290.1673583984376	-355.7610168457031	38.09740066528318	210.1959838867188	-562.0557861328125	26.59177017211911	211.053955078125	-515.60205078125	6.522195816040007	274.6750793457032	nan	nan	nan	
140	1.39	-401.9116516113282	1407.831665039063	167.594467163086	-380.5290832519532	1191.150512695313	167.4046173095703	-549.2869262695314	1345.071166992188	173.8346557617188	-618.2940673828126	1184.372436523438	184.3283233642578	-374.9268188476563	1346.338989257813	53.61184692382815	-394.1272277832032	1027.147216796875	164.8169097900391	-384.8738098144532	967.5577392578125	141.2923736572266	-384.4367675781251	967.304443359375	191.9072723388672	-554.943115234375	738.3330688476563	-17.46712303161618	-554.4853515625	673.3760986328125	-14.76403522491452	-600.1321411132813	692.4896850585938	-23.19804000854489	-553.6372680664063	413.0550842285156	-8.655912399291958	-500.7903442382813	374.3570556640624	-5.189476490020721	-544.9886474609375	348.0558776855468	-5.028843879699673	-315.3489379882813	152.8924713134765	99.04661560058595	-480.2309265136719	61.84480285644528	56.35420227050784	-429.2734375	72.36992645263669	11.57019233703616	-505.5428466796876	755.0851440429688	335.4491271972657	-492.9878845214844	691.7489013671875	325.6756286621094	-541.24072265625	700.4476318359375	333.1240539550782	-457.7818603515625	375.6577758789063	295.8206481933594	-428.17041015625	317.9297790527344	298.255859375	-477.9862670898438	313.8520507812499	289.7701110839844	-356.1763000488281	39.6842575073242	209.2716217041016	-562.2080688476563	26.51434707641598	211.212142944336	-515.4981689453125	6.667852878570525	274.5840148925782	nan	nan	nan	
141	1.4	-415.3906555175782	1408.472290039063	167.4089965820313	-393.4991760253907	1191.813232421875	167.0842742919922	-562.5374755859376	1345.317016601563	173.393051147461	-630.9771118164064	1184.396484375	184.6261749267578	-387.9740295410157	1346.774536132813	53.90855789184572	-406.8614501953126	1027.65087890625	163.6714324951172	-397.6862792968751	968.1401977539063	139.9135284423828	-396.8558654785157	967.7353515625	190.514144897461	-571.7839965820313	740.4171752929688	-17.93974304199215	-572.698974609375	675.4872436523438	-15.4790000915527	-618.1539306640625	695.5223999023438	-23.08337402343746	-576.6532592773438	412.3008422851562	-8.096345901489222	-526.4298706054688	370.5729064941406	-5.117504596710173	-571.801025390625	346.7958374023437	-4.665962219238247	-354.5809631347656	137.4573822021484	99.77506256103518	-524.7669677734375	58.2763519287109	54.67623901367191	-472.8428039550781	65.57917785644528	10.45100879669192	-514.1036376953125	755.4194946289063	334.8057250976563	-500.6718750000001	692.325927734375	324.5642700195313	-548.98486328125	700.294921875	332.5254516601563	-460.2852783203125	376.7870788574219	294.9301147460938	-430.0238037109375	319.44921875	297.5931396484375	-479.7840270996094	314.8512573242187	289.3739624023438	-356.5575561523438	41.2919235229492	208.3310546875	-562.317626953125	26.45650100708004	211.3434295654297	-515.360107421875	6.85028028488156	274.4584655761719	nan	nan	nan	
142	1.41	-428.8765869140626	1408.84033203125	167.1230010986328	-406.4729309082032	1192.200927734375	166.6368560791016	-575.8033447265626	1345.276611328125	172.9215393066407	-643.6693115234376	1184.13134765625	184.9343414306641	-401.0682983398438	1346.927978515625	54.11760330200197	-419.6261291503907	1027.859375	162.35546875	-410.5399780273438	968.4116821289063	138.4147644042969	-409.2961730957032	967.8973388671875	188.9981842041016	-588.2044067382813	741.982421875	-18.28925323486325	-590.392822265625	677.1264038085938	-16.0584506988525	-635.6900024414063	698.0015258789063	-22.80357170104977	-599.0550537109375	410.9785156249999	-7.460592746734583	-551.6978759765625	366.2786560058593	-5.051800251007046	-598.1693725585938	345.1802368164062	-4.267951011657678	-395.1692810058594	121.9583206176758	100.3350372314453	-569.7623901367188	54.97121810913082	52.84470367431644	-517.03173828125	58.89363098144528	9.181032180786165	-522.6710205078125	755.64208984375	334.1985168457032	-508.3766784667969	692.7844848632813	323.5476684570313	-556.7421264648438	700.0306396484375	331.9124755859376	-463.0142822265625	377.8823852539063	294.0587768554688	-432.0840148925781	320.9103698730469	296.8810424804688	-481.787841796875	315.7871093749999	288.9381103515626	-356.9035339355469	42.91439056396482	207.404296875	-562.386962890625	26.41020202636715	211.4458465576172	-515.1895751953125	7.058251380920378	274.3018798828126	nan	nan	nan	
143	1.42	-442.3795166015626	1408.9326171875	166.7378692626953	-419.4667053222657	1192.309814453125	166.0639343261719	-589.0982055664064	1344.950927734375	172.4146575927735	-656.3895263671876	1183.580078125	185.2355041503907	-414.2165527343751	1346.798461914063	54.23844146728518	-432.4392089843751	1027.770385742188	160.8800354003907	-423.4521484375001	968.36865234375	136.809814453125	-421.7792358398438	967.789306640625	187.3733062744141	-604.1620483398438	742.9776611328125	-18.51130867004391	-607.4837646484375	678.23046875	-16.4716815948486	-652.6574096679688	699.8453369140625	-22.37447547912594	-620.8465576171875	409.1334838867187	-6.742507457733116	-576.5403442382813	361.5620117187499	-4.905535221099818	-624.038818359375	343.2900695800781	-3.850452661514244	-437.0693359375	106.7221069335937	100.6707458496094	-615.1556396484375	52.15889739990231	50.7919845581055	-561.7960815429688	52.56445312499996	7.705532073974644	-531.276611328125	755.7535400390625	333.6296997070313	-516.135498046875	693.1209716796875	322.6463012695313	-564.548583984375	699.653564453125	331.2994689941407	-465.9932861328125	378.9252929687499	293.2251892089844	-434.3775024414063	322.2991027832031	296.1431884765625	-484.0189819335938	316.6328124999999	288.4331665039063	-357.2179565429688	44.55208587646482	206.5227966308594	-562.4209594726563	26.36904335021969	211.521728515625	-514.990478515625	7.278724670410124	274.1217956542969	nan	nan	nan	
